<svg xmlns="http://www.w3.org/2000/svg" viewBox="0 0 63.01 63.01"><defs><style>.cls-1{fill:#fff;stroke-width:6px;}.cls-1,.cls-2{stroke:#1d1d1b;stroke-miterlimit:10;}.cls-2{fill:#1d1d1b;stroke-width:5px;}</style></defs><g id="Слой_2" data-name="Слой 2"><g id="Слой_1-2" data-name="Слой 1"><path class="cls-1" d="M3,3H50.35A9.66,9.66,0,0,1,60,12.66V60a0,0,0,0,1,0,0H12.66A9.66,9.66,0,0,1,3,50.35V3A0,0,0,0,1,3,3Z"/><path class="cls-2" d="M17.25,17.25H37.58a8.18,8.18,0,0,1,8.18,8.18V45.76a0,0,0,0,1,0,0H25.43a8.18,8.18,0,0,1-8.18-8.18V17.25A0,0,0,0,1,17.25,17.25Z"/></g></g></svg>