<svg xmlns="http://www.w3.org/2000/svg" viewBox="0 0 221.17 224.71"><defs><style>.cls-1{fill:#1d1d1b;stroke:#1d1d1b;stroke-miterlimit:10;stroke-width:6px;}</style></defs><g id="Слой_2" data-name="Слой 2"><g id="Слой_1-2" data-name="Слой 1"><rect class="cls-1" x="3" y="94.13" width="36.44" height="36.44" rx="18.22" transform="translate(-91.13 133.58) rotate(-90)"/><rect class="cls-1" x="3" y="139.7" width="36.44" height="36.44" rx="18.22" transform="translate(-136.7 179.14) rotate(-90)"/><rect class="cls-1" x="47.68" y="139.7" width="36.44" height="36.44" rx="18.22" transform="translate(-92.02 223.83) rotate(-90)"/><rect class="cls-1" x="92.36" y="139.7" width="36.44" height="36.44" rx="18.22" transform="translate(-47.34 268.51) rotate(-90)"/><rect class="cls-1" x="137.05" y="139.7" width="36.44" height="36.44" rx="18.22" transform="translate(-2.65 313.19) rotate(-90)"/><rect class="cls-1" x="137.05" y="94.13" width="36.44" height="36.44" rx="18.22" transform="translate(42.91 267.62) rotate(-90)"/><rect class="cls-1" x="92.36" y="94.13" width="36.44" height="36.44" rx="18.22" transform="translate(-1.77 222.94) rotate(-90)"/><rect class="cls-1" x="137.05" y="48.57" width="36.44" height="36.44" rx="18.22" transform="translate(88.48 222.06) rotate(-90)"/><rect class="cls-1" x="137.05" y="3" width="36.44" height="36.44" rx="18.22" transform="translate(134.05 176.49) rotate(-90)"/><rect class="cls-1" x="92.36" y="3" width="36.44" height="36.44" rx="18.22" transform="translate(89.36 131.81) rotate(-90)"/><rect class="cls-1" x="181.73" y="94.13" width="36.44" height="36.44" rx="18.22" transform="translate(87.59 312.3) rotate(-90)"/><rect class="cls-1" x="180.23" y="183.05" width="36.44" height="36.44" rx="18.22" transform="translate(-2.83 399.73) rotate(-90)"/><rect class="cls-1" x="92.36" y="185.27" width="36.44" height="36.44" rx="18.22" transform="translate(-92.9 314.07) rotate(-90)"/></g></g></svg>