<svg xmlns="http://www.w3.org/2000/svg" viewBox="0 0 221.17 224.71"><defs><style>.cls-1{fill:#1d1d1b;stroke:#1d1d1b;stroke-miterlimit:10;stroke-width:6px;}</style></defs><g id="Слой_2" data-name="Слой 2"><g id="Слой_1-2" data-name="Слой 1"><rect class="cls-1" x="-16.33" y="113.47" width="75.11" height="36.44" rx="8.1" transform="translate(-110.47 152.91) rotate(-90)"/><rect class="cls-1" x="70.02" y="72.68" width="36.44" height="170.49" rx="8" transform="translate(-69.68 246.17) rotate(-90)"/><rect class="cls-1" x="47.68" y="139.7" width="36.44" height="36.44" rx="8.32" transform="translate(-92.02 223.83) rotate(-90)"/><rect class="cls-1" x="70.66" y="117.99" width="79.86" height="36.44" rx="8.22" transform="translate(-25.63 246.8) rotate(-90)"/><rect class="cls-1" x="137.05" y="139.7" width="36.44" height="36.44" rx="8.02" transform="translate(-2.65 313.19) rotate(-90)"/><rect class="cls-1" x="137.05" y="94.13" width="36.44" height="36.44" rx="7.29" transform="translate(42.91 267.62) rotate(-90)"/><rect class="cls-1" x="127.93" y="59.56" width="36.44" height="107.59" rx="9.19" transform="translate(32.8 259.51) rotate(-90)"/><rect class="cls-1" x="71.22" y="71.86" width="168.09" height="36.44" rx="8.04" transform="translate(65.19 245.35) rotate(-90)"/><rect class="cls-1" x="137.05" y="3" width="36.44" height="36.44" rx="8.21" transform="translate(134.05 176.49) rotate(-90)"/><rect class="cls-1" x="109.33" y="-13.96" width="36.44" height="70.37" rx="8.01" transform="translate(106.33 148.77) rotate(-90)"/><rect class="cls-1" x="181.73" y="95.13" width="36.44" height="36.44" rx="8.99" transform="translate(86.59 313.3) rotate(-90)"/><rect class="cls-1" x="180.23" y="183.05" width="36.44" height="36.44" rx="8" transform="translate(-2.83 399.73) rotate(-90)"/><rect class="cls-1" x="61.12" y="151.02" width="104.93" height="36.44" rx="8.04" transform="translate(-55.66 282.83) rotate(-90)"/></g></g></svg>