<svg xmlns="http://www.w3.org/2000/svg" viewBox="0 0 63.01 63.01"><defs><style>.cls-1{fill:#fff;stroke-width:6px;}.cls-1,.cls-2{stroke:#1d1d1b;stroke-miterlimit:10;}.cls-2{fill:#1d1d1b;stroke-width:5px;}</style></defs><g id="Слой_2" data-name="Слой 2"><g id="Слой_1-2" data-name="Слой 1"><path class="cls-1" d="M12.14,3H50.87A9.14,9.14,0,0,1,60,12.14V60a0,0,0,0,1,0,0H12.14A9.14,9.14,0,0,1,3,50.87V12.14A9.14,9.14,0,0,1,12.14,3Z"/><path class="cls-2" d="M23.34,17.25H39.67a6.09,6.09,0,0,1,6.09,6.09V45.76a0,0,0,0,1,0,0H23.34a6.09,6.09,0,0,1-6.09-6.09V23.34A6.09,6.09,0,0,1,23.34,17.25Z"/></g></g></svg>