<svg xmlns="http://www.w3.org/2000/svg" viewBox="0 0 221.17 224.71"><defs><style>.cls-1{fill:#1d1d1b;stroke:#1d1d1b;stroke-miterlimit:10;stroke-width:6px;}</style></defs><g id="Слой_2" data-name="Слой 2"><g id="Слой_1-2" data-name="Слой 1"><path class="cls-1" d="M3,94.13H30.15a9.3,9.3,0,0,1,9.3,9.3v17.85a9.3,9.3,0,0,1-9.3,9.3H3a0,0,0,0,1,0,0V94.13A0,0,0,0,1,3,94.13Z" transform="translate(-91.13 133.58) rotate(-90)"/><path class="cls-1" d="M13.12,139.7H39.44a0,0,0,0,1,0,0v36.44a0,0,0,0,1,0,0H3a0,0,0,0,1,0,0V149.82A10.12,10.12,0,0,1,13.12,139.7Z" transform="translate(-136.7 179.14) rotate(-90)"/><rect class="cls-1" x="47.68" y="139.7" width="36.44" height="36.44" transform="translate(-92.02 223.83) rotate(-90)"/><rect class="cls-1" x="92.36" y="139.7" width="36.44" height="36.44" transform="translate(-47.34 268.51) rotate(-90)"/><path class="cls-1" d="M137,139.7h36.44a0,0,0,0,1,0,0v36.44a0,0,0,0,1,0,0H148.31A11.26,11.26,0,0,1,137,164.88V139.7A0,0,0,0,1,137,139.7Z" transform="translate(-2.65 313.19) rotate(-90)"/><rect class="cls-1" x="137.05" y="94.13" width="36.44" height="36.44" transform="translate(42.91 267.62) rotate(-90)"/><path class="cls-1" d="M92.36,94.13H117a11.79,11.79,0,0,1,11.79,11.79v24.65a0,0,0,0,1,0,0H92.36a0,0,0,0,1,0,0V94.13A0,0,0,0,1,92.36,94.13Z" transform="translate(-1.77 222.94) rotate(-90)"/><rect class="cls-1" x="137.05" y="48.57" width="36.44" height="36.44" transform="translate(88.48 222.06) rotate(-90)"/><path class="cls-1" d="M137,3h36.44a0,0,0,0,1,0,0V27.06A12.39,12.39,0,0,1,161.1,39.44H137a0,0,0,0,1,0,0V3A0,0,0,0,1,137,3Z" transform="translate(134.05 176.49) rotate(-90)"/><path class="cls-1" d="M103.64,3h13.89a11.28,11.28,0,0,1,11.28,11.28V39.44a0,0,0,0,1,0,0H92.36a0,0,0,0,1,0,0V14.28A11.28,11.28,0,0,1,103.64,3Z" transform="translate(89.36 131.81) rotate(-90)"/><path class="cls-1" d="M181.73,94.13h36.44a0,0,0,0,1,0,0v25.6a10.85,10.85,0,0,1-10.85,10.85H192.57a10.85,10.85,0,0,1-10.85-10.85V94.13A0,0,0,0,1,181.73,94.13Z" transform="translate(87.59 312.3) rotate(-90)"/><rect class="cls-1" x="180.23" y="183.05" width="36.44" height="36.44" rx="10.44" transform="translate(-2.83 399.73) rotate(-90)"/><path class="cls-1" d="M102.46,185.27h26.34a0,0,0,0,1,0,0v36.44a0,0,0,0,1,0,0H102.46a10.1,10.1,0,0,1-10.1-10.1V195.37a10.1,10.1,0,0,1,10.1-10.1Z" transform="translate(-92.9 314.07) rotate(-90)"/></g></g></svg>